<svg width="41" height="31" viewBox="0 0 41 31" fill="none" xmlns="http://www.w3.org/2000/svg">
<path fill-rule="evenodd" clip-rule="evenodd" d="M27.269 0H7.54257C6.15404 0 5.02842 1.12562 5.02842 2.51415C5.02842 3.90268 6.15404 5.02831 7.54257 5.02831H21.4866C21.8771 5.45359 22.1155 6.02082 22.1155 6.64374C22.1155 7.39868 21.7653 8.07185 21.2185 8.50964H13.3443C11.9557 8.50964 10.8301 9.63527 10.8301 11.0238C10.8301 12.4123 11.9557 13.538 13.3443 13.538H15.2003C15.416 13.8969 15.54 14.3172 15.54 14.7665C15.54 15.5212 15.1901 16.1942 14.6436 16.632H6.38212C4.9936 16.632 3.86797 17.7576 3.86797 19.1462C3.86797 20.5347 4.9936 21.6603 6.38212 21.6603H20.326C20.7166 22.0856 20.955 22.6528 20.955 23.2757C20.955 24.0307 20.6048 24.7038 20.058 25.1416H16.8255C15.437 25.1416 14.3113 26.2673 14.3113 27.6558C14.3113 29.0443 15.437 30.17 16.8255 30.17H36.5519C37.9404 30.17 39.0661 29.0443 39.0661 27.6558C39.0661 26.2673 37.9404 25.1416 36.5519 25.1416H25.1966C24.6498 24.7038 24.2996 24.0307 24.2996 23.2757C24.2996 22.6528 24.538 22.0856 24.9285 21.6603H26.1086C27.4971 21.6603 28.6227 20.5347 28.6227 19.1462C28.6227 17.7576 27.4971 16.632 26.1086 16.632H19.7811C19.2346 16.1942 18.8846 15.5212 18.8846 14.7665C18.8846 14.3172 19.0086 13.8969 19.2243 13.538H33.0707C34.4592 13.538 35.5848 12.4123 35.5848 11.0238C35.5848 9.63527 34.4592 8.50964 33.0707 8.50964H26.3571C25.8103 8.07185 25.4601 7.39868 25.4601 6.64374C25.4601 6.02082 25.6985 5.45359 26.0891 5.02831H27.269C28.6575 5.02831 29.7832 3.90268 29.7832 2.51415C29.7832 1.12562 28.6575 0 27.269 0ZM4.64149 25.9151H9.6698C10.7379 25.9151 11.6038 26.781 11.6038 27.8491C11.6038 28.9172 10.7379 29.7831 9.6698 29.7831H4.64149C3.57339 29.7831 2.70753 28.9172 2.70753 27.8491C2.70753 26.781 3.57339 25.9151 4.64149 25.9151ZM38.2925 17.0189H33.2641C32.196 17.0189 31.3302 17.8847 31.3302 18.9528C31.3302 20.0209 32.196 20.8868 33.2641 20.8868H38.2925C39.3605 20.8868 40.2264 20.0209 40.2264 18.9528C40.2264 17.8847 39.3605 17.0189 38.2925 17.0189ZM1.93396 8.89628H6.96227C8.03037 8.89628 8.89624 9.76214 8.89624 10.8302C8.89624 11.8983 8.03037 12.7642 6.96227 12.7642H1.93396C0.865865 12.7642 0 11.8983 0 10.8302C0 9.76214 0.865865 8.89628 1.93396 8.89628ZM39.066 0.386852H34.0377C32.9696 0.386852 32.1038 1.25272 32.1038 2.32082C32.1038 3.38891 32.9696 4.25478 34.0377 4.25478H39.066C40.1341 4.25478 41 3.38891 41 2.32082C41 1.25272 40.1341 0.386852 39.066 0.386852Z" fill="white" fill-opacity="0.54"/>
</svg>
